<svg xmlns="http://www.w3.org/2000/svg" viewBox="0 0 488 90" xmlns:v="https://vecta.io/nano"><path d="M134.297 52.854h0 0q-.566-1.481-.566-4.096h0 0q0-2.614 1.786-15.512h0 0q1.786-12.854 1.786-20.654h0 0q0-1.83-.261-5.011h0 0q4.619.261 5.795 2.179h0 0q.61 1.133.784 2.135h0 0q.174 1.002.174 3.181h0 0q0 2.135-1.961 16.253h0 0q-2.004 14.118-2.048 20.131h0 0q.305-.087 1.089-.087h0 0q13.203 0 19.651-1.83h0 0q-.436 3.529-2.397 5.49h0 0q-2.004 1.961-4.967 1.961h0 0q-.871 0-5.272-.392h0 0q-4.444-.392-8.584-.392h0 0q-4.139 0-8.322.784h0 0q.828-2.702 3.312-4.139zm40.131-20.218h0 0q-1.743 3.05-2.702 6.275h0 0q-.959 3.181-.959 6.144h0 0q0 2.919 1.307 4.967h0 0q1.307 2.048 3.747 2.048h0 0q3.442 0 6.405-3.747h0 0q3.007-3.791 4.619-9.107h0 0q1.612-5.359 1.612-9.891h0 0q0-4.532-.349-7.451h0 0q1.438-.131 1.83-.131h0 0q5.185 0 5.185 5.316h0 0q0 1.133-1.481 9.412h0 0q-1.438 8.279-1.438 13.246h0 0q0 4.967 1.874 8.802h0 0q-3.834-.784-5.577-3.399h0 0q-1.743-2.571-1.743-7.451h0 0q0-.871.261-3.312h0 0q-1.656 5.795-5.795 9.325h0 0q-4.183 3.573-8.148 3.573h0 0q-4.009 0-6.449-3.05h0 0q-2.44-3.007-2.44-8.322h0 0q0-5.359 2.004-10.458h0 0q1.961-5.098 5.969-8.802h0 0q3.965-3.747 8.932-3.747h0 0q2.135 0 4.706.871h0 0q-3.617.915-6.623 3.355h0 0q-2.963 2.44-4.749 5.534zm61.394-18.519h0l.044.741h0q0 2.309-1.743 15.163h0 0q-1.743 12.81-1.743 21.438h0 0q0 3.834.392 5.969h0 0q-1.481.131-1.612.131h0 0q-2.745 0-4.096-1.264h0 0q-1.307-1.264-1.307-4.096h0 0q0-2.832 2.048-17.342h0 0q2.004-14.466 2.004-20.654h0 0q0-6.187-.828-8.105h0 0q1.961.261 3.617 1.525h0 0q1.699 1.22 2.527 3.312h0 0q4.662-2.484 10.37-2.484h0 0q5.664 0 8.932 3.486h0 0q3.268 3.529 3.268 8.627h0 0q0 6.536-4.749 11.765h0 0q-4.749 5.185-12.81 5.185h0 0q-1.83 0-3.355-.218h0l-.174-1.961h0q4.096 0 7.146-1.22h0 0q3.05-1.22 4.619-3.224h0 0q3.094-3.922 3.094-9.15h0 0q0-3.791-2.397-6.318h0 0q-2.397-2.527-6.972-2.527h0 0q-2.745 0-6.275 1.22zm35.381 18.519h0 0q-1.786 3.05-2.745 6.275h0 0q-.915 3.181-.915 6.144h0 0q0 2.919 1.307 4.967h0 0q1.307 2.048 3.747 2.048h0 0q3.399 0 6.405-3.747h0 0q2.963-3.791 4.575-9.107h0 0q1.656-5.359 1.656-9.891h0 0q0-4.532-.392-7.451h0 0q1.481-.131 1.83-.131h0 0q5.185 0 5.185 5.316h0 0q0 1.133-1.438 9.412h0 0q-1.481 8.279-1.481 13.246h0 0q0 4.967 1.874 8.802h0 0q-3.834-.784-5.577-3.399h0 0q-1.743-2.571-1.743-7.451h0 0q0-.871.261-3.312h0 0q-1.656 5.795-5.795 9.325h0 0q-4.139 3.573-8.148 3.573h0 0q-4.009 0-6.449-3.05h0 0q-2.44-3.007-2.44-8.322h0 0q0-5.359 2.004-10.458h0 0q1.961-5.098 5.969-8.802h0 0q4.009-3.747 8.932-3.747h0 0q2.135 0 4.706.871h0 0q-3.617.915-6.58 3.355h0 0q-3.007 2.44-4.749 5.534zm58.344-2.658h0 0q0 2.789-1.176 9.891h0 0q-1.176 7.102-1.176 10.37h0 0q0 3.224.784 4.662h0 0q.784 1.438 2.702 2.44h0 0q-.828.087-2.266.087h0 0q-4.139 0-5.882-1.569h0 0q-1.743-1.569-1.743-5.577h0 0q0-2.266 1.22-9.107h0 0q1.22-6.885 1.22-10.109h0 0q0-4.009-2.44-4.009h0 0q-3.922 0-8.105 6.885h0 0q-4.183 6.885-4.183 16.601h0 0q0 3.834.392 5.969h0 0q-1.612.131-1.917.131h0 0q-5.359 0-5.359-5.272h0 0q0-1.22 1.307-9.368h0 0q1.264-8.192 1.264-13.028h0 0q0-4.88-1.046-8.932h0 0q3.617 1.394 5.054 3.965h0 0q1.438 2.614 1.438 5.926h0 0q0 3.312-.741 7.712h0 0q2.004-6.885 6.318-11.59h0 0q4.27-4.749 8.017-4.749h0 0q6.318 0 6.318 8.671zm29.237-6.885h0 0q0 2.527-.959 3.529h0 0q-1.002.959-2.876.959h0-4.401 0q-.261 1.612-1.264 7.582h0 0q-2.092 11.329-2.092 17.124h0 0q0 5.795.871 7.712h0 0q-3.486-1.307-4.967-3.878h0 0q-1.438-2.614-1.438-6.318h0 0q0-3.747.436-7.059h0 0q.479-3.312 1.307-7.756h0 0q.871-4.488 1.22-7.146h0 0q-3.486.479-6.841 1.961h0 0q-.087-1.002-.087-1.786h0 0q0-2.919 1.917-3.922h0 0q1.961-1.002 5.621-1.002h0 0q.436-4.532.436-6.754h0 0q0-2.222-.044-3.573h0 0q0-1.351 0-2.004h0 0q2.789.436 4.314 2.484h0 0q1.525 2.004 1.525 5.577h0 0q0 1.83-.305 4.444h0 0q5.316 0 7.495-1.786h0 0q.131.871.131 1.612zm11.46 14.553h0q2.004-6.885 6.187-11.59h0 0q4.183-4.749 7.843-4.749h0 0q3.66 0 5.185 2.222h0 0q1.525 2.222 1.525 6.057h0 0q0 3.791-1.176 10.675h0 0q-1.176 6.928-1.176 10.065h0 0q0 3.137.784 4.575h0 0q.784 1.438 2.658 2.44h0 0q-.784.087-2.222.087h0 0q-3.922 0-5.795-1.612h0 0q-1.83-1.612-1.83-5.534h0 0q0-2.266 1.22-9.107h0 0q1.22-6.885 1.22-10.109h0 0q0-4.009-2.832-4.009h0 0q-1.656 0-3.66 1.743h0 0q-2.004 1.699-3.878 4.662h0 0q-1.83 2.963-3.094 7.538h0 0q-1.264 4.532-1.264 8.932h0 0q0 4.444.392 6.58h0 0q-1.481.131-1.656.131h0 0q-2.876 0-4.227-1.22h0 0q-1.394-1.22-1.394-3.834h0 0q0-2.571 1.089-9.978h0 0q3.224-22.702 3.224-34.466h0 0q0-5.316-.697-7.146h0 0q3.529 1.307 4.967 3.791h0 0q1.438 2.527 1.438 6.885h0 0q0 3.05-1.22 12.81h0 0q-1.176 9.76-1.612 14.161h0zm46.144-13.159h0 0q-3.66 0-6.187 4.183h0 0q-2.571 4.227-3.399 9.891h0 1.699 0q3.224 0 5.621-.915h0 0q2.353-.915 3.66-2.353h0 0q2.44-2.832 2.44-6.362h0 0q0-2.004-.959-3.224h0 0q-.959-1.22-2.876-1.22zm8.584 24.706h0q-2.789 4.575-6.144 6.405h0 0q-3.355 1.83-7.8 1.83h0 0q-4.401 0-7.712-3.922h0 0q-3.312-3.878-3.312-10.98h0 0q0-8.061 4.357-14.379h0 0q2.135-3.05 5.577-4.967h0 0q3.442-1.874 7.582-1.874h0 0q9.15 0 9.15 8.845h0 0q0 5.316-4.096 8.322h0 0q-4.139 3.007-9.542 3.007h0 0q-3.617 0-6.492-.654h0 0q-.044.61-.044 1.874h0 0q0 10.806 6.405 10.806h0 0q6.013 0 9.804-5.969h0 0q2.266.305 2.266 1.656h0zm-1.22-32.462h0 0q-.044.654-.654 1.264h0 0q-.566.566-1.307.741h0 0q-2.179-2.745-5.621-5.403h0 0q-3.442-2.702-7.015-3.791h0 0q.131-3.181 2.963-5.011h0 0q3.224 1.264 6.667 5.054h0 0q3.442 3.747 4.967 7.146zm17.996 19.956h0q2.179-7.93 5.272-11.678h0 0q3.094-3.747 5.752-3.747h0 0q2.658 0 3.965 1.961h0 0q1.351 2.004 1.351 5.054h0 0q0 3.05-1.569 5.272h0 0q-1.612 2.222-4.662 2.222h0 0q-.959 0-1.525-.131h0 0q2.092-3.007 2.092-6.1h0 0q0-2.179-1.786-2.179h0 0q-1.394 0-2.963 1.612h0 0q-1.612 1.656-3.05 4.575h0 0q-1.481 2.963-2.44 7.625h0 0q-1.002 4.706-1.002 10.153h0 0q0 .61.305 5.185h0 0q-1.569.131-1.83.131h0 0q-5.359 0-5.359-5.272h0 0q0-1.22 1.307-9.368h0 0q1.264-8.192 1.264-13.028h0 0q0-4.88-1.046-8.932h0 0q3.617 1.394 5.054 3.965h0 0q1.438 2.614 1.438 6.057h0 0q0 3.442-.566 6.623h0zm35.948-12.2h0 0q-3.66 0-6.231 4.183h0 0q-2.527 4.227-3.355 9.891h0 1.699 0q3.224 0 5.621-.915h0 0q2.353-.915 3.66-2.353h0 0q2.44-2.832 2.44-6.362h0 0q0-2.004-.959-3.224h0 0q-.959-1.22-2.876-1.22zm8.584 24.706h0q-2.789 4.575-6.144 6.405h0 0q-3.355 1.83-7.8 1.83h0 0q-4.401 0-7.712-3.922h0 0q-3.312-3.878-3.312-10.98h0 0q0-8.061 4.357-14.379h0 0q2.135-3.05 5.577-4.967h0 0q3.442-1.874 7.582-1.874h0 0q9.15 0 9.15 8.845h0 0q0 5.316-4.096 8.322h0 0q-4.139 3.007-9.542 3.007h0 0q-3.617 0-6.492-.654h0 0q-.044.61-.044 1.874h0 0q0 10.806 6.405 10.806h0 0q6.013 0 9.804-5.969h0 0q2.266.305 2.266 1.656h0z"/><g transform="matrix(1.210165 0 0 1.210165 -4.368992 -14.702728)" fill="#1d1d1b"><path d="M44 46.07V46a5.74 5.74 0 0 0-3.52-2.72h-.14a11.6 11.6 0 0 0-2.5-.47 15.62 15.62 0 0 1-6.43-2.38.75.75 0 0 0-.84 1.24 17.29 17.29 0 0 0 2 1.11c0 .1-.09.2-.12.31a6.09 6.09 0 0 0 4.15 7.51 6.46 6.46 0 0 0 1.78.25 5.9 5.9 0 0 0 4.69-2.28 10.33 10.33 0 0 1-.18 3 .75.75 0 0 0 .47 1 .76.76 0 0 0 .24 0 .75.75 0 0 0 .71-.51 11.57 11.57 0 0 0 .23-4.1 4.94 4.94 0 0 0-.54-1.89zm-4.47-1.49a1.28 1.28 0 0 1 0 .52 1.314 1.314 0 1 1-2.53-.71 1.27 1.27 0 0 1 .09-.17l.6.07a10.89 10.89 0 0 1 1.86.3zm.94 4.25a4.67 4.67 0 0 1-3.48.32 4.59 4.59 0 0 1-3.14-5.67v-.12a15.83 15.83 0 0 0 1.7.55v.06A2.8 2.8 0 1 0 41 45.14a3.86 3.86 0 0 1 1.48 1.32 4.27 4.27 0 0 1-1.99 2.37zm27.1-5.76c0-.11-.08-.2-.12-.31a17.29 17.29 0 0 0 2-1.11.75.75 0 0 0-.84-1.24 15.62 15.62 0 0 1-6.43 2.38 11.59 11.59 0 0 0-2.52.47h-.12A5.74 5.74 0 0 0 56 46v.05a4.94 4.94 0 0 0-.54 1.95 11.57 11.57 0 0 0 .23 4.1.756.756 0 0 0 1.43-.49 10.27 10.27 0 0 1-.19-3 5.9 5.9 0 0 0 4.69 2.28 6.46 6.46 0 0 0 1.78-.25 6.09 6.09 0 0 0 4.17-7.57zm-5.3 1.22l.6-.07a1.26 1.26 0 0 1 .09.17 1.3 1.3 0 0 1-.89 1.6 1.27 1.27 0 0 1-1.63-1.41 10.89 10.89 0 0 1 1.84-.29zm.73 4.86a4.67 4.67 0 0 1-3.48-.32 4.27 4.27 0 0 1-2-2.38A3.86 3.86 0 0 1 59 45.14a2.84 2.84 0 0 0 .07.37 2.8 2.8 0 0 0 2.69 2A2.8 2.8 0 0 0 64.41 44v-.06a15.83 15.83 0 0 0 1.7-.55v.12A4.59 4.59 0 0 1 63 49.15zm-16.67-4.26c-.16-2.25-2-3.68-5.15-3.92a11.57 11.57 0 0 1-4.68-1.69.75.75 0 0 0-.83 1.25 12.92 12.92 0 0 0 5.4 1.93c1.35.1 3.63.57 3.77 2.53a.75.75 0 0 0 .75.7h.05a.75.75 0 0 0 .69-.8zm12.98-2.43a12.92 12.92 0 0 0 5.4-1.93.75.75 0 0 0-.83-1.25A11.58 11.58 0 0 1 59.19 41c-3.11.24-5 1.67-5.15 3.92a.75.75 0 0 0 .7.8h.05a.75.75 0 0 0 .75-.7c.14-2.02 2.46-2.45 3.77-2.56zm-24.67-5.21a.75.75 0 1 0 1.16-.95l-3.19-3.92a.75.75 0 1 0-1.16.95zM38 35.08a.75.75 0 0 0 .7.48.75.75 0 0 0 .7-1l-1.41-3.68a.75.75 0 1 0-1.4.54zm4 .11a.75.75 0 0 0 .75-.69l.25-3.18a.75.75 0 0 0-.69-.81.74.74 0 0 0-.81.69l-.25 3.19a.75.75 0 0 0 .75.8zM95.31 61c-3.9-1.24-13.08-1.13-20.54-.79 5-6.31 5-12.41 4.11-15.28-.68-2.15-1.73-7.57-.39-9.68a1.56 1.56 0 0 1 1.18-.77c1.76-.23 2.08-2.06 2.33-3.52a8.38 8.38 0 0 1 .35-1.54 4.25 4.25 0 0 1 1.22-1.37 10.59 10.59 0 0 0 3.18-4.23c1.59-3.91-.54-5.84-.63-5.92a.73.73 0 0 0-.28-.13h-.14a6.16 6.16 0 0 0-4.81.73 51.69 51.69 0 0 1-2.76 1.25 6.88 6.88 0 0 1-8-1.32c-4.5-4.32-7.67-5.57-20.08-5.57s-15.54 1.26-20 5.57a6.88 6.88 0 0 1-8 1.32 51.69 51.69 0 0 1-2.76-1.25 6.16 6.16 0 0 0-4.81-.73h-.14a.73.73 0 0 0-.28.13c-.09.08-2.22 2-.63 5.92a10.59 10.59 0 0 0 3.18 4.23 4.26 4.26 0 0 1 1.22 1.37A8.4 8.4 0 0 1 18 31c.25 1.47.56 3.29 2.33 3.52a1.56 1.56 0 0 1 1.18.77c1.34 2.11.29 7.53-.39 9.68-.91 2.87-.87 9 4.11 15.28-7.46-.34-16.64-.45-20.54.79a.751.751 0 0 0 .46 1.43c4.09-1.3 15-1 21.18-.66h.25l.65.69c-7.68.11-12.89.64-15.5 1.58a.75.75 0 1 0 .51 1.41c2.58-.93 8.3-1.45 16.56-1.51.35.3.71.59 1.07.88-6.47.36-17 1.21-21 3a.75.75 0 0 0 .6 1.37c4.17-1.83 16.18-2.64 22.22-2.95l1 .72.1.07c-6.29.61-10.59 1.4-12.79 2.36a.75.75 0 0 0 .6 1.37c2.07-.91 6.45-1.69 12.72-2.28A19.94 19.94 0 0 0 34 74c1.63 4.32 3.86 5.38 6.46 5.6a5.67 5.67 0 0 0 1.52 1.81 15.18 15.18 0 0 0-3.39 4.47.75.75 0 0 0 1.4.54c.27-.7 1.08-2 3.29-4.19a10.86 10.86 0 0 0 2 .78 11.32 11.32 0 0 0-.92 3.43.75.75 0 0 0 .71.79.75.75 0 0 0 .75-.71 10.34 10.34 0 0 1 .91-3.17 19.89 19.89 0 0 0 6.54 0 10.5 10.5 0 0 1 .91 3.17.75.75 0 0 0 .75.71.75.75 0 0 0 .71-.79 11.32 11.32 0 0 0-.89-3.44 10.86 10.86 0 0 0 2-.78c2.21 2.19 3 3.49 3.29 4.19a.75.75 0 0 0 1.4-.54 15.18 15.18 0 0 0-3.39-4.47 5.67 5.67 0 0 0 1.52-1.81c2.6-.22 4.83-1.27 6.45-5.59a19.92 19.92 0 0 0 .65-5.45c6.27.59 10.66 1.37 12.72 2.28a.75.75 0 1 0 .6-1.37c-2.22-1-6.6-1.77-13-2.38l.8-.56.31-.22c6 .3 18.2 1.11 22.42 3a.75.75 0 0 0 .6-1.37c-4.06-1.78-14.61-2.62-21.07-3q.57-.43 1.11-.88c8.28.05 14 .57 16.59 1.51a.75.75 0 0 0 .51-1.41c-2.6-.94-7.81-1.47-15.5-1.58l.65-.69h.25c6.15-.31 17.09-.64 21.18.66a.805.805 0 0 0 .47-1.54zm-42 18.91a.75.75 0 1 0-1.3.75c.16.27.39.7.64 1.2a18.15 18.15 0 0 1-5.22 0c.35-.71.63-1.19.64-1.2a.75.75 0 1 0-1.3-.75c0 .06-.42.73-.87 1.66a7 7 0 0 1-3.58-2h2.43A6 6 0 0 0 50 76.43a6 6 0 0 0 5.29 3.13h2.43a7 7 0 0 1-3.58 2c-.45-.9-.83-1.56-.87-1.63zm17.1-17.26l-.08.06c-.84.7-1.77 1.38-2.68 2h-.78c.13-1.71.45-3.25 1.07-3.71a.762.762 0 0 0-.94-1.2c-1 .83-1.44 2.64-1.63 4.83h-.61a.73.73 0 0 0-.77.73.75.75 0 0 0 .73.77h.56v.74h-.18a.76.76 0 0 0-.81.68.75.75 0 0 0 .68.81h.21a20 20 0 0 1-.56 5.05c-1.41 3.75-3.1 4.54-5.55 4.66h-3.78a4.54 4.54 0 0 1-4.53-4.46 5.51 5.51 0 0 1 1.16-.84c1-.64 2.47-1.52 1.93-2.79-.19-.44-.06-.65 1.66-1.82l.63-.43a2.48 2.48 0 0 0 1.3-2 2.08 2.08 0 0 0-.95-1.6.74.74 0 0 0-1 .22.76.76 0 0 0 .21 1c.08.06.26.23.27.37s-.17.41-.66.75l-.62.43c-1.63 1.1-2.91 2-2.2 3.57-.08.25-.89.74-1.33 1a10.22 10.22 0 0 0-1.13.77 10.22 10.22 0 0 0-1.13-.77 7.46 7.46 0 0 1-1.33-.93c.71-1.67-.58-2.54-2.2-3.65l-.62-.43c-.48-.34-.66-.61-.66-.75s.18-.31.26-.37a.75.75 0 0 0-.81-1.26 2.08 2.08 0 0 0-.95 1.6 2.48 2.48 0 0 0 1.3 2l.63.43c1.73 1.17 1.85 1.38 1.66 1.82-.54 1.28.89 2.15 1.93 2.79a10.47 10.47 0 0 1 1.16.77 4.54 4.54 0 0 1-4.54 4.52h-1.56c-3.72.09-6 .14-7.78-4.66a20.07 20.07 0 0 1-.56-5.05h.21a.753.753 0 1 0-.13-1.5h-.14v-.74h.56a.75.75 0 0 0 0-1.5h-.61c-.19-2.19-.58-4-1.63-4.83A.818.818 0 1 0 32.06 61c.62.49.91 2 1.06 3.71h-.95c-.85-.64-1.7-1.31-2.48-2a.73.73 0 0 0-.15-.14l-.76-.69 2.33.15h.06a.751.751 0 0 0 .06-1.5l-4-.25c-5.44-6.19-5.58-12.2-4.72-14.92 0-.08 2.33-7.62.23-10.93a3.07 3.07 0 0 0-2.2-1.43c-.62-.08-.82-1-1-2.29a9.51 9.51 0 0 0-.44-1.84 5.37 5.37 0 0 0-1.63-1.95 9 9 0 0 1-2.78-3.67c-1-2.36-.23-3.66.1-4.08a3.19 3.19 0 0 1 2.07.54c.07.06 7.52 5.52 10.79 5.52H28c-3 2.15-4.76 4.9-4.76 7.59a.75.75 0 0 0 1.5 0c0-2.81 2.6-5.89 6.63-7.86a13.71 13.71 0 0 0 4.48-1.49.75.75 0 1 0-.73-1.31 15.48 15.48 0 0 1-7.56 1.58c-1.25 0-3.64-1.21-5.86-2.55a8.3 8.3 0 0 0 9.3-1.73c4-3.82 6.49-5.15 19-5.15s15 1.34 19 5.15a8.18 8.18 0 0 0 5.77 2.45 9.77 9.77 0 0 0 3.44-.68c-2.21 1.33-4.6 2.53-5.84 2.53a15.48 15.48 0 0 1-7.56-1.58.75.75 0 0 0-.73 1.31A13.72 13.72 0 0 0 68.59 25c4 2 6.63 5 6.63 7.86a.75.75 0 0 0 1.5 0c0-2.7-1.77-5.45-4.76-7.59h.44c3.27 0 10.72-5.46 10.79-5.52a3.19 3.19 0 0 1 2.06-.54c.33.43 1.05 1.73.1 4.08a9 9 0 0 1-2.78 3.67 5.37 5.37 0 0 0-1.63 1.95 9.49 9.49 0 0 0-.44 1.84c-.23 1.33-.42 2.21-1 2.29a3.07 3.07 0 0 0-2.25 1.45c-2.11 3.31.2 10.86.23 10.93.87 2.73.72 8.74-4.72 14.92l-4 .25a.751.751 0 0 0 .06 1.5h.06l2.33-.15c-.21.23-.52.47-.8.71zm-5.64-25.12a.75.75 0 0 0 .58-.28l3.19-3.92a.75.75 0 1 0-1.16-.95l-3.19 3.92a.75.75 0 0 0 .58 1.22zm-3.7-2.02a.74.74 0 0 0 .27 0 .75.75 0 0 0 .7-.48l1.41-3.68a.75.75 0 1 0-1.4-.54l-1.41 3.68a.75.75 0 0 0 .43 1.02zM58 35.2a.75.75 0 0 0 .69-.81l-.25-3.19a.752.752 0 0 0-1.5.12l.25 3.19a.75.75 0 0 0 .81.69z"/><circle cx="38.13" cy="69.84" r="1.05"/><circle cx="38.48" cy="73.41" r="1.05"/><circle cx="41.22" cy="75.76" r="1.05"/><circle cx="42.14" cy="72.11" r="1.05"/><circle cx="45.06" cy="73.95" r="1.05"/><circle cx="61.87" cy="69.84" r="1.05"/><circle cx="61.52" cy="73.41" r="1.05"/><circle cx="58.78" cy="75.76" r="1.05"/><circle cx="57.86" cy="72.11" r="1.05"/><circle cx="54.94" cy="73.95" r="1.05"/><path d="M53.56 52.5a.75.75 0 0 0-.81.69A9.21 9.21 0 0 1 50 58.58a9.16 9.16 0 0 1-2.73-5.4.75.75 0 0 0-1.5.12 11 11 0 0 0 3.73 6.86.75.75 0 0 0 .47.17.75.75 0 0 0 .47-.17 11 11 0 0 0 3.73-6.86.75.75 0 0 0-.61-.8zm-13.19 2.7a.75.75 0 0 0-1 .27c-.2.35-.46.72-.73 1.11-1.34 1.94-3.36 4.88-.51 8a.75.75 0 0 0 1.1-1c-1.89-2.05-.93-3.82.64-6.1l.79-1.21a.75.75 0 0 0-.29-1.07zm20.32.27a.75.75 0 1 0-1.3.75c.22.38.5.78.79 1.21 1.57 2.28 2.53 4.05.64 6.1a.75.75 0 1 0 1.1 1c2.85-3.09.83-6-.51-8l-.72-1.06zM41.89 65a.75.75 0 0 0-1.43-.46 4.13 4.13 0 0 0 1.91 4.82.75.75 0 0 0 .75-1.3A2.62 2.62 0 0 1 41.89 65zm15.73 4.33a4.13 4.13 0 0 0 1.91-4.82.75.75 0 0 0-1.43.46A2.62 2.62 0 0 1 56.87 68a.75.75 0 0 0 .75 1.3zm-4.74-4.18a3.83 3.83 0 0 1-5.77 0 .75.75 0 0 0-1.16 1 5.32 5.32 0 0 0 8.08 0 .75.75 0 0 0-1.16-1zM30.51 50.52a.75.75 0 1 0-.72 1.31c2.63 1.45 3.77 3.59 3.77 4.36a.75.75 0 0 0 1.5 0c0-1.55-1.7-4.1-4.55-5.67zm40.08.3a.75.75 0 0 0-1-.3C66.72 52.09 65 54.64 65 56.2a.75.75 0 0 0 1.5 0c0-.77 1.14-2.92 3.77-4.36a.75.75 0 0 0 .32-1.02z"/></g><path d="M138.126 68.966l-1.109-2.772h-4.225l-1.099 2.772h-.707l3.527-8.833h.793l3.527 8.833h-.707zm-5.085-3.384h3.738l-1.539-3.852-.325-.937h-.01l-.325.908-1.539 3.881zm17.302-.937h3.632v4.321h-.535l-.029-1.539h0q-.363.803-1.128 1.243h0 0q-.774.43-1.912.43h0 0q-1.204 0-2.103-.554h0 0q-.908-.554-1.396-1.587h0 0q-.488-1.032-.488-2.409h0 0q0-1.376.507-2.409h0 0q.497-1.032 1.405-1.587h0 0q.908-.554 2.113-.554h0 0q1.357 0 2.208.535h0 0q.86.535 1.29 1.635h0l-.621.315h0q-.306-.918-1.032-1.396h0 0q-.726-.478-1.845-.478h0 0q-.985 0-1.74.478h0 0q-.746.478-1.157 1.367h0 0q-.421.889-.421 2.093h0 0q0 1.835.879 2.887h0 0q.879 1.051 2.428 1.051h0 0q.965 0 1.635-.382h0 0q.669-.382.985-1.004h0 0q.325-.621.325-1.338h0v-.488h-3.002v-.631zm13.364 3.709h5.573v.612h-6.242v-8.833h6.032v.612h-5.363v3.413h4.235v.631h-4.235v3.566zm20.992-8.221v8.833h-.832l-4.684-6.93-.65-1.176h-.019l.048 1.109v6.997h-.65v-8.833h.851l4.665 6.921.669 1.185-.029-1.109v-6.997h.631zm16.461 6.596h0q-.373 1.128-1.3 1.749h0 0q-.937.621-2.227.621h0 0q-1.204 0-2.122-.554h0 0q-.908-.554-1.405-1.587h0 0q-.488-1.032-.488-2.409h0 0q0-1.376.488-2.409h0 0q.497-1.032 1.405-1.587h0 0q.918-.554 2.103-.554h0 0q2.648 0 3.432 2.179h0l-.66.306h0q-.306-.937-.985-1.405h0 0q-.679-.468-1.749-.468h0 0q-.985 0-1.74.478h0 0q-.755.478-1.176 1.367h0 0q-.411.889-.411 2.093h0 0q0 1.204.411 2.093h0 0q.401.889 1.147 1.367h0 0q.746.478 1.749.478h0 0q1.071 0 1.816-.526h0 0q.746-.526 1.042-1.482h0l.669.249zm9.33 1.625h5.582v.612h-6.252v-8.833h6.032v.612h-5.363v3.413h4.244v.631h-4.244v3.566zm27.874-8.221h0q2.113 0 3.26 1.118h0 0q1.147 1.118 1.147 3.231h0 0q0 2.17-1.147 3.327h0 0q-1.147 1.157-3.26 1.157h0-2.782v-8.833h2.782zm.057 8.221h0q1.768 0 2.705-1.004h0 0q.946-.994.946-2.868h0 0q0-1.797-.946-2.763h0 0q-.937-.975-2.705-.975h0-2.17v7.609h2.17zm13.947 0h5.573v.612h-6.242v-8.833h6.032v.612h-5.363v3.413h4.235v.631h-4.235v3.566zm29.461-5.582l-1.778 6.194h-.832l-2.753-8.833h.726l2.447 8.288 2.313-8.288h.774l2.313 8.297 2.476-8.297h.688l-2.763 8.833h-.822l-1.788-6.194-.488-1.912h-.019l-.497 1.912zm15.524 5.582h5.582v.612h-6.252v-8.833h6.041v.612h-5.372v3.413h4.244v.631h-4.244v3.566zm14.214.612v-8.833h3.116 0q1.453 0 2.17.602h0 0q.707.602.707 1.74h0 0q0 .774-.421 1.31h0 0q-.421.535-1.195.698h0v.01h0q.86.134 1.357.698h0 0q.507.564.507 1.396h0 0q0 1.138-.813 1.759h0 0q-.813.621-2.313.621h0-3.116zm.669-4.76h2.466 0q2.151 0 2.151-1.73h0 0q0-1.73-2.151-1.73h0-2.466v3.46zm0 4.149h2.581 0q1.128 0 1.702-.459h0 0q.574-.459.574-1.31h0 0q0-.87-.574-1.319h0 0q-.574-.449-1.702-.449h0-2.581v3.537zm28.142-8.221h0q2.122 0 3.26 1.118h0 0q1.147 1.118 1.147 3.231h0 0q0 2.17-1.147 3.327h0 0q-1.138 1.157-3.26 1.157h0-2.782v-8.833h2.782zm.057 8.221h0q1.768 0 2.715-1.004h0 0q.937-.994.937-2.868h0 0q0-1.797-.937-2.763h0 0q-.946-.975-2.715-.975h0-2.17v7.609h2.17zm13.947 0h5.582v.612h-6.252v-8.833h6.032v.612h-5.363v3.413h4.244v.631h-4.244v3.566zM371.319 60h0q2.495 0 3.336 1.95h0l-.574.468h0q-.335-.946-1.004-1.376h0 0q-.66-.43-1.74-.43h0 0q-.784 0-1.357.249h0 0q-.574.239-.87.65h0 0q-.306.421-.306.937h0 0q0 .507.258.841h0 0q.249.335.86.574h0 0q.612.229 1.682.421h0 0q1.721.296 2.447.86h0 0q.717.554.717 1.549h0 0q0 .707-.411 1.262h0 0q-.411.545-1.166.841h0 0q-.765.306-1.74.306h0 0q-1.386 0-2.342-.554h0 0q-.965-.554-1.31-1.558h0l.593-.459h0q.268.956 1.071 1.453h0 0q.813.507 2.007.507h0 0q1.147 0 1.874-.468h0 0q.736-.468.736-1.29h0 0q0-.707-.602-1.118h0 0q-.593-.421-2.065-.669h0 0q-1.243-.22-1.969-.526h0 0q-.717-.306-1.032-.765h0 0q-.315-.449-.315-1.138h0 0q0-.679.392-1.252h0 0q.392-.583 1.128-.918h0 0q.726-.344 1.702-.344h0zm12.914.134v8.833h-.669v-8.833h.669zm12.876 4.512h3.623v4.321h-.535l-.019-1.539h0q-.363.803-1.138 1.243h0 0q-.765.43-1.902.43h0 0q-1.204 0-2.113-.554h0 0q-.899-.554-1.386-1.587h0 0q-.488-1.032-.488-2.409h0 0q0-1.376.497-2.409h0 0q.507-1.032 1.415-1.587h0 0q.908-.554 2.113-.554h0 0q1.348 0 2.208.535h0 0q.86.535 1.281 1.635h0l-.612.315h0q-.306-.918-1.032-1.396h0 0q-.736-.478-1.845-.478h0 0q-.994 0-1.74.478h0 0q-.746.478-1.166 1.367h0 0q-.411.889-.411 2.093h0 0q0 1.835.879 2.887h0 0q.87 1.051 2.428 1.051h0 0q.956 0 1.625-.382h0 0q.669-.382.994-1.004h0 0q.325-.621.325-1.338h0v-.488h-3.002v-.631zm19.472-4.512v8.833h-.832l-4.684-6.93-.65-1.176h-.019l.038 1.109v6.997h-.64v-8.833h.841l4.674 6.921.669 1.185-.029-1.109v-6.997h.631z"/></svg>